# xmcd CD database file
#
# Track frame offsets:
#	150
#	13119
#	25501
#	42725
#	57236
#	71950
#	86391
#	100669
#	111390
#	127429
#	141673
#	156425
#
# Disc length: 2327 seconds
#
# Revision: 0
# Processed by: cddbd v1.5.1PL2 Copyright (c) Steve Scherf et al.
# Submitted via: CDex 1.51
#
DISCID=b509150c
DTITLE=Amanda Richards - Not Always Sexy
DYEAR=2004
DGENRE=Country
TTITLE0=All the Way to the Bottom
TTITLE1=Magnum 45
TTITLE2=Share the Load
TTITLE3=Not Always Sexy
TTITLE4=Cool Waters
TTITLE5=That Much to Me
TTITLE6=Cookies and Whiskey
TTITLE7=Love's Gonna Shine
TTITLE8=Try it Again
TTITLE9=Close to Me
TTITLE10=Oasis
TTITLE11=What I Need
EXTD=YEAR: 2004
EXTT0=
EXTT1=
EXTT2=
EXTT3=
EXTT4=
EXTT5=
EXTT6=
EXTT7=
EXTT8=
EXTT9=
EXTT10=
EXTT11=
PLAYORDER=
